<svg xmlns="http://www.w3.org/2000/svg" viewBox="0 0 1025 813" width="1025" height="813">
	<defs>
		<linearGradient id="grd1" gradientUnits="userSpaceOnUse"  x1="11115.55" y1="21417.76" x2="11115.55" y2="417.76">
			<stop offset="0" stop-color="#808080" stop-opacity="0.25" />
			<stop offset="54" stop-color="#808080" stop-opacity="0.12" />
			<stop offset="100" stop-color="#808080" stop-opacity="0.1" />
		</linearGradient>
		<linearGradient id="grd2" gradientUnits="userSpaceOnUse"  x1="11676946.46" y1="7289277.115" x2="11676946.46" y2="5726896.756">
			<stop offset="0" stop-color="#808080" stop-opacity="0.25" />
			<stop offset="54" stop-color="#808080" stop-opacity="0.12" />
			<stop offset="100" stop-color="#808080" stop-opacity="0.1" />
		</linearGradient>
		<linearGradient id="grd3" gradientUnits="userSpaceOnUse"  x1="6582191.466" y1="14912511.241" x2="6582191.466" y2="4163627.228">
			<stop offset="0" stop-color="#808080" stop-opacity="0.25" />
			<stop offset="54" stop-color="#808080" stop-opacity="0.12" />
			<stop offset="100" stop-color="#808080" stop-opacity="0.1" />
		</linearGradient>
		<linearGradient id="grd4" gradientUnits="userSpaceOnUse"  x1="12677478.517" y1="14912462.528" x2="12677478.517" y2="4163578.515">
			<stop offset="0" stop-color="#808080" stop-opacity="0.25" />
			<stop offset="54" stop-color="#808080" stop-opacity="0.12" />
			<stop offset="100" stop-color="#808080" stop-opacity="0.1" />
		</linearGradient>
		<linearGradient id="grd5" gradientUnits="userSpaceOnUse"  x1="14033980.358" y1="17601714.39" x2="14033980.358" y2="7015409.171">
			<stop offset="0" stop-color="#808080" stop-opacity="0.25" />
			<stop offset="54" stop-color="#808080" stop-opacity="0.12" />
			<stop offset="100" stop-color="#808080" stop-opacity="0.1" />
		</linearGradient>
		<linearGradient id="grd6" gradientUnits="userSpaceOnUse"  x1="644984.641" y1="2022038.834" x2="694859.48" y2="2022038.834">
			<stop offset="0" stop-color="#808080" stop-opacity="0.25" />
			<stop offset="54" stop-color="#808080" stop-opacity="0.12" />
			<stop offset="100" stop-color="#808080" stop-opacity="0.1" />
		</linearGradient>
		<linearGradient id="grd7" gradientUnits="userSpaceOnUse"  x1="2093421.395" y1="12749568.865" x2="2391084.419" y2="2541535.56">
			<stop offset="0" stop-color="#808080" stop-opacity="0.25" />
			<stop offset="54" stop-color="#808080" stop-opacity="0.12" />
			<stop offset="100" stop-color="#808080" stop-opacity="0.1" />
		</linearGradient>
		<linearGradient id="grd8" gradientUnits="userSpaceOnUse"  x1="8472205.904" y1="15165668.104" x2="8472205.904" y2="11084192.278">
			<stop offset="0" stop-color="#808080" stop-opacity="0.25" />
			<stop offset="54" stop-color="#808080" stop-opacity="0.12" />
			<stop offset="100" stop-color="#808080" stop-opacity="0.1" />
		</linearGradient>
		<linearGradient id="grd9" gradientUnits="userSpaceOnUse"  x1="5727430.595" y1="17461161.879" x2="5727430.595" y2="13144299.086">
			<stop offset="0" stop-color="#808080" stop-opacity="0.25" />
			<stop offset="54" stop-color="#808080" stop-opacity="0.12" />
			<stop offset="100" stop-color="#808080" stop-opacity="0.1" />
		</linearGradient>
		<linearGradient id="grd10" gradientUnits="userSpaceOnUse"  x1="3664117.466" y1="16929796.281" x2="3664117.466" y2="12674514.21">
			<stop offset="0" stop-color="#808080" stop-opacity="0.25" />
			<stop offset="54" stop-color="#808080" stop-opacity="0.12" />
			<stop offset="100" stop-color="#808080" stop-opacity="0.1" />
		</linearGradient>
		<linearGradient id="grd11" gradientUnits="userSpaceOnUse"  x1="1964998.04" y1="14607842.86" x2="1964998.04" y2="10478818.86">
			<stop offset="0" stop-color="#808080" stop-opacity="0.25" />
			<stop offset="54" stop-color="#808080" stop-opacity="0.12" />
			<stop offset="100" stop-color="#808080" stop-opacity="0.1" />
		</linearGradient>
	</defs>
	<style>
		tspan { white-space:pre }
		.shp0 { fill: url(#grd1) } 
		.shp1 { fill: #f5f5f5 } 
		.shp2 { opacity: 0.502;fill: url(#grd2) } 
		.shp3 { fill: #ffffff } 
		.shp4 { fill: #a1887f } 
		.shp5 { opacity: 0.2;fill: #ffffff } 
		.shp6 { fill: url(#grd3) } 
		.shp7 { fill: url(#grd4) } 
		.shp8 { fill: #e0e0e0 } 
		.shp9 { opacity: 0.302;fill: #294ace } 
		.shp10 { fill: url(#grd5) } 
		.shp11 { fill: #294ace } 
		.shp12 { fill: #bdbdbd } 
		.shp13 { fill: #69f0ae } 
		.shp14 { opacity: 0.502;fill: url(#grd6) } 
		.shp15 { opacity: 0.302;fill: #ffffff } 
		.shp16 { fill: #47e6b1 } 
		.shp17 { opacity: 0.502;fill: #4d8af0 } 
		.shp18 { opacity: 0.502;fill: #f55f44 } 
		.shp19 { opacity: 0.502;fill: #47e6b1 } 
		.shp20 { opacity: 0.502;fill: url(#grd7) } 
		.shp21 { fill: #dbdbdb } 
		.shp22 { opacity: 0.302;fill: #3ad29f } 
		.shp23 { opacity: 0.502;fill: url(#grd8) } 
		.shp24 { fill: #4d8af0 } 
		.shp25 { opacity: 0.302;fill: #4d8af0 } 
		.shp26 { opacity: 0.502;fill: url(#grd9) } 
		.shp27 { fill: #ff5252 } 
		.shp28 { opacity: 0.502;fill: #ff5252 } 
		.shp29 { opacity: 0.302;fill: #ff5252 } 
		.shp30 { opacity: 0.502;fill: url(#grd10) } 
		.shp31 { opacity: 0.502;fill: #69f0ae } 
		.shp32 { opacity: 0.302;fill: #69f0ae } 
		.shp33 { opacity: 0.502;fill: url(#grd11) } 
		.shp34 { opacity: 0.502;fill: #294ace } 
		.shp35 { fill: #262b3a } 
	</style>
	<g id="Layer">
		<g id="Layer">
			<path id="Layer" class="shp0" d="M720.55 627.76C662.48 627.76 615.55 580.83 615.55 522.76C615.55 464.69 662.48 417.76 720.55 417.76C778.62 417.76 825.55 464.69 825.55 522.76C825.55 580.83 778.62 627.76 720.55 627.76Z" />
			<path id="Layer" class="shp1" d="M720.55 622.76C665.25 622.76 620.55 578.06 620.55 522.76C620.55 467.46 665.25 422.76 720.55 422.76C775.85 422.76 820.55 467.46 820.55 522.76C820.55 578.06 775.85 622.76 720.55 622.76Z" />
			<path id="Layer" class="shp2" d="M723.35 460.3C690.6 459.16 662.53 483.52 659.04 516.11L641.04 516.11C640.56 516.11 640.09 516.2 639.65 516.39C639.21 516.57 638.8 516.84 638.47 517.18C638.13 517.51 637.86 517.92 637.68 518.36C637.49 518.8 637.4 519.27 637.4 519.75L637.4 525.75C637.4 526.23 637.49 526.7 637.68 527.14C637.86 527.58 638.13 527.99 638.47 528.32C638.8 528.66 639.21 528.93 639.65 529.11C640.09 529.3 640.56 529.39 641.04 529.39L659.04 529.39C662.58 562.58 691.57 587.13 724.89 585.15C758.21 583.17 784.1 555.37 783.68 521.99C783.27 488.62 756.71 461.46 723.35 460.3Z" />
			<path id="Layer" class="shp3" d="M722.54 464.04C691.76 463 665.4 485.89 662.13 516.51L644.71 516.51C644.33 516.51 643.95 516.59 643.59 516.73C643.24 516.88 642.92 517.09 642.65 517.37C642.37 517.64 642.16 517.96 642.01 518.31C641.87 518.67 641.79 519.05 641.79 519.43L641.79 526.11C641.79 526.49 641.87 526.87 642.01 527.23C642.16 527.58 642.37 527.9 642.65 528.17C642.92 528.45 643.24 528.66 643.59 528.81C643.95 528.95 644.33 529.03 644.71 529.03L662.13 529.03C665.49 560.22 692.76 583.28 724.07 581.39C755.39 579.51 779.7 553.35 779.29 521.98C778.88 490.61 753.89 465.1 722.54 464.03L722.54 464.04Z" />
			<path id="Layer" class="shp4" d="M720.55 564.01C697.74 564.01 679.3 545.57 679.3 522.76C679.3 499.95 697.74 481.51 720.55 481.51C743.36 481.51 761.8 499.95 761.8 522.76C761.8 545.57 743.36 564.01 720.55 564.01Z" />
			<path id="Layer" class="shp5" d="M741.8 502.76C741.8 502.76 753.57 521.04 750.21 535.26C750.2 535.26 763.65 512.92 741.8 502.76Z" />
			<path id="Layer" class="shp5" d="M746.8 549.01C744.73 549.01 743.05 547.33 743.05 545.26C743.05 543.19 744.73 541.51 746.8 541.51C748.87 541.51 750.55 543.19 750.55 545.26C750.55 547.33 748.87 549.01 746.8 549.01Z" />
			<path id="Layer" class="shp6" d="M-0.01 187.8L208 140.74L276.13 441.84L68.12 488.91L-0.01 187.8Z" />
			<path id="Layer" class="shp7" d="M215.29 139.09L423.3 92.02L491.43 393.13L283.42 440.2L215.29 139.09Z" />
			<path id="Layer" class="shp3" d="M4.18 191.63L208 145.87L274.44 441.84L70.63 487.6L4.18 191.63Z" />
			<path id="Layer" class="shp1" d="M217.64 142.38L420.48 96.48L487.14 391.05L284.29 436.94L217.64 142.38Z" />
			<path id="Layer" class="shp8" d="M209.55 184.72L231.37 179.79L232.02 182.69L210.21 187.63L209.55 184.72ZM211.86 194.9L233.68 189.97L234.33 192.87L212.52 197.81L211.86 194.9ZM214.16 205.1L235.98 200.16L236.64 203.06L214.82 208L214.16 205.1ZM216.46 215.28L238.28 210.34L238.94 213.25L217.12 218.18L216.46 215.28ZM218.77 225.45L240.59 220.52L241.25 223.42L219.43 228.36L218.77 225.45ZM221.07 235.64L242.89 230.7L243.55 233.61L221.73 238.54L221.07 235.64ZM223.38 245.82L245.2 240.88L245.86 243.79L224.04 248.72L223.38 245.82ZM225.68 256.01L247.5 251.07L248.16 253.98L226.34 258.91L225.68 256.01ZM227.99 266.19L249.81 261.25L250.47 264.16L228.65 269.09L227.99 266.19ZM230.29 276.37L252.11 271.43L252.77 274.34L230.95 279.27L230.29 276.37ZM232.6 286.55L254.42 281.61L255.08 284.52L233.26 289.45L232.6 286.55ZM234.9 296.74L256.72 291.8L257.38 294.71L235.56 299.64L234.9 296.74ZM237.2 306.92L259.02 301.98L259.68 304.89L237.86 309.83L237.2 306.92ZM239.5 317.1L261.32 312.16L261.98 315.07L240.16 320L239.5 317.1ZM241.8 327.28L263.62 322.34L264.28 325.25L242.46 330.19L241.8 327.28ZM244.12 337.47L265.93 332.53L266.59 335.44L244.77 340.38L244.12 337.47ZM246.42 347.65L268.23 342.71L268.89 345.62L247.07 350.56L246.42 347.65ZM248.73 357.83L270.54 352.89L271.2 355.8L249.38 360.74L248.73 357.83ZM251.03 368.01L272.84 363.07L273.5 365.98L251.68 370.92L251.03 368.01ZM253.34 378.2L275.15 373.26L275.81 376.17L253.99 381.11L253.34 378.2ZM255.64 388.38L277.45 383.44L278.11 386.35L256.29 391.29L255.64 388.38ZM257.94 398.56L279.75 393.62L280.41 396.53L258.59 401.47L257.94 398.56ZM260.25 408.74L282.06 403.8L282.72 406.71L260.9 411.65L260.25 408.74ZM262.55 418.92L284.36 413.99L285.02 416.89L263.2 421.83L262.55 418.92Z" />
			<path id="Layer" class="shp9" d="M47.14 214.47L168.94 186.91L173.53 207.21L51.73 234.77L47.14 214.47ZM37.94 268.12L200.33 231.38L201.48 236.45L39.08 273.19L37.94 268.12ZM40.62 279.97L203.01 243.22L204.16 248.3L41.76 285.04L40.62 279.97ZM43.3 291.82L205.7 255.07L206.85 260.14L44.45 296.89L43.3 291.82ZM45.98 303.66L123.79 286.05L124.94 291.12L47.12 308.73L45.98 303.66ZM48.66 315.49L138.31 295.21L139.46 300.28L49.81 320.56L48.66 315.49ZM51.34 327.34L213.73 290.59L214.88 295.66L52.48 332.41L51.34 327.34ZM54.02 339.18L216.42 302.44L217.56 307.51L55.17 344.25L54.02 339.18ZM56.7 351.02L207.25 316.96L208.4 322.03L57.85 356.09L56.7 351.02ZM59.38 362.86L221.77 326.11L222.92 331.18L60.52 367.93L59.38 362.86ZM62.05 374.71L146.63 355.57L147.78 360.64L63.2 379.78L62.05 374.71ZM285.03 338.48L374.69 318.19L375.83 323.27L286.18 343.55L285.03 338.48ZM287.71 350.32L450.1 313.58L451.25 318.65L288.85 355.39L287.71 350.32ZM290.39 362.16L452.79 325.41L453.94 330.49L291.54 367.23L290.39 362.16ZM293.07 374L443.63 339.93L444.77 345L294.22 379.07L293.07 374ZM295.75 385.84L458.14 349.1L459.29 354.17L296.9 390.91L295.75 385.84ZM298.42 397.69L383 378.55L384.15 383.62L299.57 402.76L298.42 397.69ZM127.54 381.22L225.65 359.02L240.96 426.69L142.85 448.89L127.54 381.22ZM243.69 155.78L341.8 133.58L357.12 201.25L259.01 223.45L243.69 155.78ZM339.72 226.51L437.83 204.31L453.14 271.99L355.03 294.18L339.72 226.51Z" />
			<path id="Layer" class="shp10" d="M304.7 206.01L486.49 164.88C493.74 163.24 500.93 167.77 502.57 175.02L564.77 449.91C566.41 457.16 561.87 464.34 554.62 465.98L372.83 507.12C365.58 508.76 358.4 504.23 356.76 496.98L294.55 222.09C292.91 214.84 297.45 207.65 304.7 206.01Z" />
			<path id="Layer" class="shp11" d="M307.05 209.3L483.67 169.34C490.92 167.7 498.11 172.23 499.75 179.48L560.47 447.83C562.11 455.07 557.58 462.26 550.33 463.9L373.7 503.87C366.45 505.51 359.27 500.97 357.63 493.72L296.91 225.38C295.27 218.13 299.8 210.94 307.05 209.3Z" />
			<path id="Layer" class="shp12" d="M288.78 253.95L310.6 249.01L311.26 251.92L289.44 256.86L288.78 253.95ZM291.09 264.13L312.91 259.19L313.57 262.1L291.75 267.04L291.09 264.13ZM293.39 274.31L315.21 269.38L315.87 272.28L294.05 277.22L293.39 274.31ZM295.7 284.5L317.52 279.56L318.18 282.47L296.36 287.41L295.7 284.5ZM298 294.68L319.82 289.75L320.48 292.65L298.66 297.59L298 294.68ZM300.31 304.86L322.13 299.92L322.79 302.83L300.97 307.77L300.31 304.86ZM302.61 315.04L324.43 310.11L325.09 313.01L303.27 317.95L302.61 315.04ZM304.91 325.22L326.73 320.28L327.39 323.19L305.57 328.13L304.91 325.22ZM307.21 335.41L329.03 330.48L329.69 333.38L307.87 338.32L307.21 335.41ZM309.51 345.6L331.33 340.66L331.99 343.56L310.17 348.5L309.51 345.6ZM311.82 355.77L333.64 350.84L334.3 353.74L312.48 358.68L311.82 355.77ZM314.12 365.95L335.94 361.02L336.6 363.92L314.78 368.86L314.12 365.95ZM316.44 376.14L338.25 371.21L338.91 374.11L317.09 379.05L316.44 376.14ZM318.74 386.33L340.55 381.39L341.21 384.3L319.39 389.23L318.74 386.33ZM321.05 396.5L342.86 391.57L343.52 394.47L321.7 399.41L321.05 396.5ZM323.35 406.69L345.16 401.75L345.82 404.66L324 409.59L323.35 406.69ZM325.66 416.88L347.48 411.94L348.13 414.85L326.32 419.78L325.66 416.88ZM327.96 427.06L349.78 422.12L350.43 425.03L328.62 429.96L327.96 427.06ZM330.26 437.24L352.08 432.3L352.73 435.21L330.92 440.14L330.26 437.24ZM332.57 447.42L354.39 442.48L355.04 445.39L333.23 450.32L332.57 447.42ZM334.86 457.61L356.68 452.67L357.34 455.58L335.52 460.51L334.86 457.61ZM337.17 467.79L358.99 462.85L359.65 465.76L337.83 470.69L337.17 467.79ZM339.47 477.97L361.29 473.03L361.95 475.94L340.13 480.88L339.47 477.97ZM341.78 488.15L363.6 483.21L364.26 486.12L342.44 491.05L341.78 488.15Z" />
			<path id="Layer" class="shp13" d="M170.46 465.39L180.21 463.19L200.3 551.94L190.54 554.15L170.46 465.39Z" />
			<path id="Layer" class="shp14" d="M158.39 430.19L175.95 426.22L186.1 471.09L168.54 475.06L158.39 430.19Z" />
			<path id="Layer" class="shp13" d="M160.29 431.81L174.92 428.5L184.41 470.44L169.78 473.75L160.29 431.81Z" />
			<path id="Layer" class="shp15" d="M160.29 431.81L174.92 428.5L184.41 470.44L169.78 473.75L160.29 431.81Z" />
			<path id="Layer" fill-rule="evenodd" class="shp13" d="M193.6 558.58L199.45 557.26L198.13 551.4L192.28 552.73L193.6 558.58ZM163.76 440.24L157.91 441.56L158.35 443.51L162.1 460.09L164.05 459.65L160.3 443.07L164.2 442.19L163.76 440.24Z" />
			<path id="Layer" class="shp15" d="M163.76 440.24L159.86 441.12L157.91 441.56L158.35 443.51L162.1 460.09L164.05 459.65L160.3 443.07L164.2 442.19L163.76 440.24Z" />
			<g id="Layer" style="opacity: 0.502">
				<path id="Layer" class="shp16" d="M183.55 746.76L186.55 746.76L186.55 763.76L183.55 763.76L183.55 746.76Z" />
				<path id="Layer" class="shp16" d="M193.55 753.76L193.55 756.76L176.55 756.76L176.55 753.76L193.55 753.76Z" />
			</g>
			<g id="Layer" style="opacity: 0.502">
				<path id="Layer" class="shp16" d="M726.55 124.76L729.55 124.76L729.55 141.76L726.55 141.76L726.55 124.76Z" />
				<path id="Layer" class="shp16" d="M736.55 131.76L736.55 134.76L719.55 134.76L719.55 131.76L736.55 131.76Z" />
			</g>
			<g id="Layer" style="opacity: 0.502">
				<path id="Layer" class="shp16" d="M636.55 341.76L639.55 341.76L639.55 358.76L636.55 358.76L636.55 341.76Z" />
				<path id="Layer" class="shp16" d="M646.55 348.76L646.55 351.76L629.55 351.76L629.55 348.76L646.55 348.76Z" />
			</g>
			<g id="Layer" style="opacity: 0.502">
				<path id="Layer" class="shp16" d="M894.15 380.76L897.15 380.76L897.15 397.76L894.15 397.76L894.15 380.76Z" />
				<path id="Layer" class="shp16" d="M904.15 387.77L904.15 390.77L887.15 390.77L887.15 387.77L904.15 387.77Z" />
			</g>
			<path id="Layer" class="shp17" d="M358.24 745.11C357.83 744.93 357.46 744.67 357.15 744.36C356.84 744.04 356.58 743.68 356.4 743.27C356.21 742.86 356.11 742.43 356.08 741.98C356.05 741.54 356.11 741.09 356.24 740.67C356.28 740.54 356.31 740.4 356.32 740.26C356.35 739.86 356.24 739.47 356.03 739.14C355.81 738.81 355.49 738.55 355.12 738.42C354.75 738.28 354.34 738.26 353.96 738.38C353.58 738.49 353.25 738.72 353.01 739.04C352.99 739.07 352.97 739.1 352.95 739.13C352.93 739.15 352.92 739.18 352.9 739.21C352.88 739.24 352.87 739.27 352.85 739.31C352.84 739.34 352.82 739.37 352.81 739.4C352.63 739.81 352.37 740.18 352.06 740.49C351.74 740.8 351.38 741.06 350.97 741.24C350.56 741.43 350.13 741.53 349.68 741.56C349.24 741.59 348.79 741.53 348.37 741.4C348.34 741.39 348.3 741.38 348.27 741.37C348.24 741.36 348.2 741.35 348.17 741.35C348.13 741.34 348.1 741.34 348.06 741.33C348.03 741.33 347.99 741.32 347.96 741.32C347.56 741.29 347.17 741.4 346.84 741.61C346.51 741.83 346.25 742.15 346.12 742.52C345.98 742.89 345.96 743.3 346.08 743.68C346.19 744.06 346.42 744.39 346.74 744.63C346.85 744.71 346.97 744.78 347.1 744.83C347.51 745.01 347.88 745.27 348.19 745.58C348.5 745.9 348.76 746.26 348.94 746.67C349.13 747.08 349.23 747.51 349.26 747.96C349.29 748.4 349.23 748.85 349.1 749.27C349.09 749.3 349.08 749.34 349.07 749.37C349.06 749.4 349.05 749.44 349.05 749.47C349.04 749.51 349.04 749.54 349.03 749.58C349.03 749.61 349.02 749.65 349.02 749.68C348.98 750.08 349.08 750.48 349.3 750.83C349.51 751.17 349.84 751.43 350.22 751.57C350.59 751.71 351.01 751.72 351.39 751.6C351.78 751.48 352.12 751.24 352.35 750.91C352.37 750.88 352.39 750.85 352.41 750.82C352.43 750.8 352.44 750.77 352.46 750.74C352.48 750.71 352.49 750.68 352.51 750.64C352.52 750.61 352.54 750.58 352.55 750.55C352.73 750.14 352.99 749.77 353.3 749.46C353.62 749.15 353.98 748.89 354.39 748.71C354.8 748.52 355.23 748.42 355.68 748.39C356.12 748.36 356.57 748.42 356.99 748.55C357.12 748.59 357.26 748.62 357.4 748.63C357.8 748.66 358.19 748.55 358.52 748.34C358.85 748.12 359.11 747.8 359.24 747.43C359.38 747.06 359.4 746.65 359.28 746.27C359.17 745.89 358.94 745.56 358.62 745.32C358.59 745.3 358.56 745.28 358.53 745.26C358.5 745.24 358.47 745.22 358.44 745.2C358.4 745.19 358.37 745.17 358.34 745.15C358.31 745.14 358.27 745.12 358.24 745.11ZM541.24 757.11C540.83 756.93 540.46 756.67 540.15 756.36C539.84 756.04 539.58 755.68 539.4 755.27C539.21 754.86 539.11 754.43 539.08 753.98C539.05 753.54 539.11 753.09 539.24 752.67C539.28 752.54 539.31 752.4 539.32 752.26C539.35 751.86 539.24 751.47 539.03 751.14C538.81 750.81 538.49 750.55 538.12 750.42C537.75 750.28 537.34 750.26 536.96 750.38C536.58 750.49 536.25 750.72 536.01 751.04C535.99 751.07 535.97 751.1 535.95 751.13C535.93 751.15 535.92 751.18 535.9 751.21C535.88 751.24 535.87 751.27 535.85 751.31C535.84 751.34 535.82 751.37 535.81 751.4C535.63 751.81 535.37 752.18 535.06 752.49C534.74 752.8 534.38 753.06 533.97 753.24C533.56 753.43 533.13 753.53 532.68 753.56C532.24 753.59 531.79 753.53 531.37 753.4C531.34 753.39 531.3 753.38 531.27 753.37C531.24 753.36 531.2 753.35 531.17 753.35C531.13 753.34 531.1 753.34 531.06 753.33C531.03 753.33 530.99 753.32 530.96 753.32C530.56 753.29 530.17 753.4 529.84 753.61C529.51 753.83 529.25 754.15 529.12 754.52C528.98 754.89 528.96 755.3 529.08 755.68C529.19 756.06 529.42 756.39 529.74 756.63C529.85 756.71 529.97 756.78 530.1 756.83C530.51 757.01 530.88 757.27 531.19 757.58C531.5 757.9 531.76 758.26 531.94 758.67C532.13 759.08 532.23 759.51 532.26 759.96C532.29 760.4 532.23 760.85 532.1 761.27C532.09 761.3 532.08 761.34 532.07 761.37C532.06 761.4 532.05 761.44 532.05 761.47C532.04 761.51 532.04 761.54 532.03 761.58C532.03 761.61 532.02 761.65 532.02 761.68C531.98 762.08 532.08 762.48 532.3 762.83C532.51 763.17 532.84 763.43 533.22 763.57C533.59 763.71 534.01 763.72 534.39 763.6C534.78 763.48 535.12 763.24 535.35 762.91C535.37 762.88 535.39 762.85 535.41 762.82C535.43 762.8 535.44 762.77 535.46 762.74C535.48 762.71 535.49 762.68 535.51 762.64C535.52 762.61 535.54 762.58 535.55 762.55C535.73 762.14 535.99 761.77 536.3 761.46C536.62 761.15 536.98 760.89 537.39 760.71C537.8 760.52 538.23 760.42 538.68 760.39C539.12 760.36 539.57 760.42 539.99 760.55C540.12 760.59 540.26 760.62 540.4 760.63C540.8 760.66 541.19 760.55 541.52 760.34C541.85 760.12 542.11 759.8 542.24 759.43C542.38 759.06 542.4 758.65 542.28 758.27C542.17 757.89 541.94 757.56 541.62 757.32C541.59 757.3 541.56 757.28 541.53 757.26C541.5 757.24 541.47 757.22 541.44 757.2C541.4 757.19 541.37 757.17 541.34 757.15C541.31 757.14 541.27 757.12 541.24 757.11L541.24 757.11ZM760.24 326.11C759.83 325.93 759.46 325.67 759.15 325.36C758.84 325.04 758.58 324.68 758.4 324.27C758.21 323.86 758.11 323.43 758.08 322.98C758.05 322.54 758.11 322.09 758.24 321.67C758.28 321.54 758.31 321.4 758.32 321.26C758.35 320.86 758.24 320.47 758.03 320.14C757.81 319.81 757.49 319.55 757.12 319.42C756.75 319.28 756.34 319.26 755.96 319.38C755.58 319.49 755.25 319.72 755.01 320.04C754.99 320.07 754.97 320.1 754.95 320.13C754.93 320.15 754.92 320.18 754.9 320.21C754.88 320.24 754.87 320.27 754.85 320.31C754.84 320.34 754.82 320.37 754.81 320.4C754.63 320.81 754.37 321.18 754.06 321.49C753.74 321.8 753.38 322.06 752.97 322.24C752.56 322.43 752.13 322.53 751.68 322.56C751.24 322.59 750.79 322.53 750.37 322.4C750.34 322.39 750.3 322.38 750.27 322.37C750.24 322.36 750.2 322.35 750.17 322.35C750.13 322.34 750.1 322.34 750.06 322.33C750.03 322.33 749.99 322.32 749.96 322.32C749.56 322.29 749.17 322.4 748.84 322.61C748.51 322.83 748.25 323.15 748.12 323.52C747.98 323.89 747.96 324.3 748.08 324.68C748.19 325.06 748.42 325.39 748.74 325.63C748.85 325.71 748.97 325.78 749.1 325.83C749.51 326.01 749.88 326.27 750.19 326.58C750.5 326.9 750.76 327.26 750.94 327.67C751.13 328.08 751.23 328.51 751.26 328.96C751.29 329.4 751.23 329.85 751.1 330.27C751.09 330.3 751.08 330.34 751.07 330.37C751.06 330.4 751.05 330.44 751.05 330.47C751.04 330.51 751.04 330.54 751.03 330.58C751.03 330.61 751.02 330.65 751.02 330.68C750.98 331.08 751.08 331.48 751.3 331.83C751.51 332.17 751.84 332.43 752.22 332.57C752.59 332.71 753.01 332.72 753.39 332.6C753.78 332.48 754.12 332.24 754.35 331.91C754.37 331.88 754.39 331.85 754.41 331.82C754.43 331.8 754.44 331.77 754.46 331.74C754.48 331.71 754.49 331.68 754.51 331.64C754.52 331.61 754.54 331.58 754.55 331.55C754.73 331.14 754.99 330.77 755.3 330.46C755.62 330.15 755.98 329.89 756.39 329.71C756.8 329.52 757.23 329.42 757.68 329.39C758.12 329.36 758.57 329.42 758.99 329.55C759.12 329.59 759.26 329.62 759.4 329.63C759.8 329.66 760.19 329.55 760.52 329.34C760.85 329.12 761.11 328.8 761.24 328.43C761.38 328.06 761.4 327.65 761.28 327.27C761.17 326.89 760.94 326.56 760.62 326.32C760.59 326.3 760.56 326.28 760.53 326.26C760.5 326.24 760.47 326.22 760.44 326.2C760.4 326.19 760.37 326.17 760.34 326.15C760.31 326.14 760.27 326.12 760.24 326.11L760.24 326.11ZM912.24 487.11C911.83 486.93 911.46 486.67 911.15 486.36C910.84 486.04 910.58 485.68 910.4 485.27C910.21 484.86 910.11 484.43 910.08 483.98C910.05 483.54 910.11 483.09 910.24 482.67C910.28 482.54 910.31 482.4 910.32 482.26C910.35 481.86 910.24 481.47 910.03 481.14C909.81 480.81 909.49 480.55 909.12 480.42C908.75 480.28 908.34 480.26 907.96 480.38C907.58 480.49 907.25 480.72 907.01 481.04C906.99 481.07 906.97 481.1 906.95 481.13C906.93 481.15 906.92 481.18 906.9 481.21C906.88 481.24 906.87 481.27 906.85 481.31C906.84 481.34 906.82 481.37 906.81 481.4C906.63 481.81 906.37 482.18 906.06 482.49C905.74 482.8 905.38 483.06 904.97 483.24C904.56 483.43 904.13 483.53 903.68 483.56C903.24 483.59 902.79 483.53 902.37 483.4C902.34 483.39 902.3 483.38 902.27 483.37C902.24 483.36 902.2 483.35 902.17 483.35C902.13 483.34 902.1 483.34 902.06 483.33C902.03 483.33 901.99 483.32 901.96 483.32C901.56 483.29 901.17 483.4 900.84 483.61C900.51 483.83 900.25 484.15 900.12 484.52C899.98 484.89 899.96 485.3 900.08 485.68C900.19 486.06 900.42 486.39 900.74 486.63C900.85 486.71 900.97 486.78 901.1 486.83C901.51 487.01 901.88 487.27 902.19 487.58C902.5 487.9 902.76 488.26 902.94 488.67C903.13 489.08 903.23 489.51 903.26 489.96C903.29 490.4 903.23 490.85 903.1 491.27C903.09 491.3 903.08 491.34 903.07 491.37C903.06 491.4 903.05 491.44 903.05 491.47C903.04 491.51 903.04 491.54 903.03 491.58C903.03 491.61 903.02 491.65 903.02 491.68C902.98 492.08 903.08 492.48 903.3 492.83C903.51 493.17 903.84 493.43 904.22 493.57C904.59 493.71 905.01 493.72 905.39 493.6C905.78 493.48 906.12 493.24 906.35 492.91C906.37 492.88 906.39 492.85 906.41 492.82C906.43 492.8 906.44 492.77 906.46 492.74C906.48 492.71 906.49 492.68 906.51 492.64C906.52 492.61 906.54 492.58 906.55 492.55C906.73 492.14 906.99 491.77 907.3 491.46C907.62 491.15 907.98 490.89 908.39 490.71C908.8 490.52 909.23 490.42 909.68 490.39C910.12 490.36 910.57 490.42 910.99 490.55C911.12 490.59 911.26 490.62 911.4 490.63C911.8 490.66 912.19 490.55 912.52 490.34C912.85 490.12 913.11 489.8 913.24 489.43C913.38 489.06 913.4 488.65 913.28 488.27C913.17 487.89 912.94 487.56 912.62 487.32C912.59 487.3 912.56 487.28 912.53 487.26C912.5 487.24 912.47 487.22 912.44 487.2C912.4 487.19 912.37 487.17 912.34 487.15C912.31 487.14 912.27 487.12 912.24 487.11L912.24 487.11Z" />
			<path id="Layer" class="shp18" d="M105.55 697.76C102.23 697.76 99.55 695.08 99.55 691.76C99.55 688.44 102.23 685.76 105.55 685.76C108.87 685.76 111.55 688.44 111.55 691.76C111.55 695.08 108.87 697.76 105.55 697.76Z" />
			<path id="Layer" class="shp17" d="M523.55 148.76C520.23 148.76 517.55 146.08 517.55 142.76C517.55 139.44 520.23 136.76 523.55 136.76C526.87 136.76 529.55 139.44 529.55 142.76C529.55 146.08 526.87 148.76 523.55 148.76Z" />
			<path id="Layer" class="shp19" d="M498.55 587.76C495.23 587.76 492.55 585.08 492.55 581.76C492.55 578.44 495.23 575.76 498.55 575.76C501.87 575.76 504.55 578.44 504.55 581.76C504.55 585.08 501.87 587.76 498.55 587.76Z" />
			<path id="Layer" class="shp18" d="M844.55 737.76C841.23 737.76 838.55 735.08 838.55 731.76C838.55 728.44 841.23 725.76 844.55 725.76C847.87 725.76 850.55 728.44 850.55 731.76C850.55 735.08 847.87 737.76 844.55 737.76Z" />
			<path id="Layer" class="shp20" d="M784 377.21L865.76 103.14C865.99 102.35 866.38 101.62 866.9 100.98C867.42 100.34 868.06 99.81 868.79 99.42C869.52 99.02 870.31 98.78 871.13 98.69C871.95 98.61 872.78 98.69 873.57 98.92L1020.13 142.64C1020.92 142.88 1021.66 143.27 1022.3 143.79C1022.94 144.31 1023.47 144.95 1023.86 145.68C1024.26 146.4 1024.5 147.2 1024.59 148.02C1024.67 148.84 1024.59 149.67 1024.36 150.47L942.6 424.53C942.37 425.32 941.98 426.06 941.46 426.7C940.94 427.34 940.3 427.87 939.57 428.26C938.85 428.65 938.05 428.9 937.23 428.98C936.41 429.07 935.58 428.99 934.79 428.76L788.24 385.04C787.45 384.81 786.71 384.42 786.07 383.9C785.42 383.38 784.89 382.73 784.5 382.01C784.1 381.28 783.86 380.48 783.77 379.66C783.69 378.83 783.77 378 784 377.21L784 377.21Z" />
			<path id="Layer" class="shp3" d="M882.85 109.39L1011.32 148.2C1018.54 150.38 1022.61 157.98 1020.43 165.2L944.03 418.1C941.85 425.32 934.25 429.39 927.03 427.21L798.57 388.4C791.35 386.22 787.27 378.62 789.45 371.4L865.85 118.5C868.03 111.28 875.63 107.21 882.85 109.39Z" />
			<path id="Layer" class="shp8" d="M982.5 143.11C981.85 144.51 980.95 145.79 979.84 146.87C978.74 147.96 977.46 148.84 976.05 149.48C974.64 150.12 973.12 150.5 971.58 150.61C970.04 150.71 968.49 150.55 967 150.11L913.71 134.11C912.23 133.66 910.84 132.96 909.61 132.02C908.37 131.09 907.32 129.95 906.48 128.64C905.65 127.34 905.06 125.9 904.73 124.39C904.4 122.88 904.34 121.32 904.56 119.79L876.35 111.42C875.58 111.19 874.77 111.12 873.97 111.2C873.18 111.28 872.4 111.52 871.69 111.9C870.99 112.28 870.36 112.8 869.86 113.42C869.35 114.04 868.97 114.76 868.74 115.53L793.27 368.35C793.04 369.12 792.97 369.93 793.05 370.73C793.13 371.52 793.37 372.3 793.75 373.01C794.13 373.71 794.65 374.34 795.27 374.84C795.89 375.35 796.61 375.73 797.38 375.96L932.22 416.19C932.99 416.42 933.8 416.49 934.6 416.41C935.39 416.33 936.17 416.09 936.88 415.71C937.58 415.33 938.21 414.81 938.71 414.19C939.22 413.57 939.6 412.85 939.83 412.08L1015.27 159.26C1015.5 158.49 1015.57 157.68 1015.49 156.88C1015.41 156.09 1015.17 155.31 1014.79 154.6C1014.41 153.9 1013.89 153.27 1013.27 152.77C1012.65 152.26 1011.93 151.88 1011.16 151.65L982.5 143.11L982.5 143.11Z" />
			<path id="Layer" class="shp21" d="M925.17 129.81L957.53 139.02C958.12 139.19 958.47 139.81 958.3 140.41L958.3 140.41C958.13 141 957.51 141.35 956.91 141.18L924.56 131.97C923.96 131.8 923.62 131.18 923.79 130.58L923.79 130.58C923.96 129.99 924.58 129.64 925.17 129.81Z" />
			<path id="Layer" class="shp21" d="M966.94 142.67C966.74 143.38 965.99 143.8 965.28 143.6C964.56 143.39 964.14 142.65 964.35 141.93C964.55 141.21 965.3 140.79 966.01 141C966.73 141.2 967.15 141.95 966.94 142.67Z" />
			<path id="Layer" class="shp3" d="M871.59 161.42L914.01 173.1L903.91 209.74L861.5 198.05L871.59 161.42Z" />
			<path id="Layer" class="shp9" d="M856.97 214.43L899.39 226.12L889.3 262.75L846.88 251.07L856.97 214.43Z" />
			<path id="Layer" class="shp3" d="M842.37 267.47L884.79 279.16L874.7 315.79L832.28 304.11L842.37 267.47Z" />
			<path id="Layer" class="shp22" d="M827.77 320.49L870.19 332.17L860.1 368.81L817.68 357.12L827.77 320.49Z" />
			<path id="Layer" class="shp3" d="M922.22 184.7L978.13 200.1L977.07 203.96L921.15 188.56L922.22 184.7ZM919.03 196.27L974.95 211.67L973.88 215.53L917.97 200.13L919.03 196.27ZM907.88 236.75L963.79 252.16L962.73 256.01L906.81 240.61L907.88 236.75ZM904.69 248.33L960.61 263.73L959.54 267.59L903.63 252.19L904.69 248.33ZM893.54 288.82L949.45 304.22L948.39 308.07L892.47 292.67L893.54 288.82ZM890.35 300.38L946.27 315.79L945.2 319.64L889.29 304.24L890.35 300.38ZM879.2 340.88L935.11 356.28L934.05 360.14L878.13 344.74L879.2 340.88ZM876.01 352.45L931.93 367.85L930.86 371.7L874.95 356.3L876.01 352.45Z" />
			<path id="Layer" class="shp23" d="M297.43 774.46L420.86 612.09L470.5 649.82L347.07 812.2L297.43 774.46Z" />
			<path id="Layer" class="shp8" d="M421.71 614.46L468.91 650.34L347.14 810.54L299.94 774.66L421.71 614.46Z" />
			<path id="Layer" class="shp24" d="M426.72 622.34L460.08 647.7L434.72 681.06L401.36 655.7L426.72 622.34Z" />
			<path id="Layer" class="shp17" d="M396.11 662.62L429.47 687.98L404.11 721.35L370.74 695.99L396.11 662.62Z" />
			<path id="Layer" class="shp25" d="M365.48 702.9L398.84 728.27L373.48 761.63L340.11 736.27L365.48 702.9Z" />
			<path id="Layer" class="shp26" d="M285.96 791.32L351.78 599.08L410.78 619.28L344.96 811.52L285.96 791.32Z" />
			<path id="Layer" class="shp1" d="M353.23 601L409.32 620.21L344.38 809.87L288.29 790.66L353.23 601Z" />
			<path id="Layer" class="shp27" d="M360.44 606.89L400.09 620.47L386.51 660.12L346.86 646.54L360.44 606.89Z" />
			<path id="Layer" class="shp28" d="M344.06 654.76L383.7 668.34L370.13 707.99L330.48 694.41L344.06 654.76Z" />
			<path id="Layer" class="shp29" d="M327.66 702.64L367.31 716.22L353.74 755.87L314.09 742.29L327.66 702.64Z" />
			<path id="Layer" class="shp30" d="M285.52 802.12L310.99 600.52L372.86 608.33L347.39 809.93L285.52 802.12Z" />
			<path id="Layer" class="shp1" d="M312.91 602.15L371.73 609.58L346.61 808.47L287.78 801.04L312.91 602.15Z" />
			<path id="Layer" class="shp13" d="M321.13 606.46L362.71 611.71L357.46 653.29L315.88 648.03L321.13 606.46Z" />
			<path id="Layer" class="shp31" d="M314.79 656.65L356.37 661.91L351.12 703.49L309.54 698.23L314.79 656.65Z" />
			<path id="Layer" class="shp32" d="M308.45 706.85L350.03 712.11L344.78 753.69L303.2 748.43L308.45 706.85Z" />
			<path id="Layer" class="shp33" d="M283.88 607.66L346.24 607.66L346.24 810.86L283.88 810.86L283.88 607.66Z" />
			<path id="Layer" class="shp3" d="M285.92 609.02L345.21 609.02L345.21 809.49L285.92 809.49L285.92 609.02Z" />
			<path id="Layer" class="shp11" d="M294.61 612.26L336.52 612.26L336.52 654.17L294.61 654.17L294.61 612.26Z" />
			<path id="Layer" class="shp34" d="M294.61 662.86L336.52 662.86L336.52 704.77L294.61 704.77L294.61 662.86Z" />
			<path id="Layer" class="shp9" d="M294.61 713.47L336.52 713.47L336.52 755.38L294.61 755.38L294.61 713.47Z" />
		</g>
		<path id="Layer" fill-rule="evenodd" class="shp35" d="M377.21 -11C367.44 -11 358.9 -14.05 351.57 -20.16C344.25 -26.26 340.59 -34.19 340.59 -43.96L340.59 -51.28C340.59 -61.05 344.25 -68.98 351.57 -75.09C358.9 -81.19 367.47 -84.24 377.28 -84.24C389 -84.24 398.74 -80.09 406.51 -71.79L391.86 -60.8C387.46 -65.2 382.58 -67.4 377.21 -67.4C372.33 -67.4 368.06 -65.44 364.39 -61.54C360.73 -57.63 358.9 -52.99 358.9 -47.62C358.9 -42.25 360.61 -37.61 364.03 -33.7C367.44 -29.8 371.84 -27.84 377.21 -27.84C382.58 -27.84 387.46 -30.04 391.86 -34.44L406.51 -23.45C398.69 -15.15 388.93 -11 377.21 -11ZM454.77 -84.24C463.56 -84.24 470.52 -81.8 475.65 -76.92C480.77 -72.03 483.34 -64.71 483.34 -54.95L483.34 -11L462.83 -11L462.83 -16.86C456.87 -12.95 451.5 -11 446.72 -11C436.95 -11 429.63 -13.08 424.74 -17.23C419.86 -21.38 417.42 -27.11 417.42 -34.44C417.42 -41.27 419.73 -47.38 424.34 -52.75C428.96 -58.12 436.41 -60.81 446.72 -60.81C451.45 -60.81 456.82 -59.34 462.83 -56.41L462.83 -58.61C462.73 -63.98 458.83 -66.91 451.11 -67.4C442.32 -67.4 435.49 -65.93 430.6 -63L422.55 -75.45C431.82 -81.31 442.57 -84.24 454.77 -84.24ZM462.83 -32.97L462.83 -41.25C460.88 -45.01 456.24 -46.89 448.91 -46.89C440.13 -45.91 435.49 -42.49 435 -36.64C435.49 -30.83 440.13 -27.68 448.91 -27.19C456.24 -27.19 460.88 -29.12 462.83 -32.97ZM520.54 -76.19C525.77 -81.56 532.14 -84.24 539.66 -84.24C542.05 -84.24 544.32 -84.05 546.47 -83.66L543.25 -63.44C540.86 -65.59 537.44 -66.74 533 -66.88C528.02 -66.54 523.87 -62.93 520.54 -56.04L520.54 -11L500.04 -11L500.04 -82.12L520.54 -84.31L520.54 -76.19ZM593.05 -11C584.75 -11 578.16 -13.32 573.28 -17.96C568.4 -22.6 565.96 -28.58 565.96 -35.9L565.96 -67.62L554.97 -67.62L554.97 -84.17L565.96 -84.17L565.96 -104.02L586.54 -106.22L586.54 -84.17L597.52 -84.17L597.52 -67.62L586.54 -67.62L586.54 -38.83C586.54 -34.93 587.35 -32.18 588.99 -30.59C590.63 -29 592.74 -28.21 595.33 -28.21C596.11 -28.21 597.94 -28.53 600.82 -29.16L605.14 -14.44C601.62 -12.15 597.6 -11 593.05 -11ZM651.21 -84.24C660 -84.24 666.96 -81.8 672.08 -76.92C677.21 -72.04 679.77 -64.71 679.77 -54.95L679.77 -11L659.27 -11L659.27 -16.86C653.31 -12.95 647.94 -11 643.15 -11C633.39 -11 626.06 -13.08 621.18 -17.23C616.3 -21.38 613.86 -27.11 613.86 -34.44C613.86 -41.27 616.16 -47.38 620.78 -52.75C625.39 -58.12 632.85 -60.81 643.15 -60.81C647.89 -60.81 653.26 -59.34 659.27 -56.41L659.27 -58.61C659.17 -63.98 655.26 -66.91 647.55 -67.4C638.76 -67.4 631.92 -65.93 627.04 -63L618.98 -75.45C628.26 -81.31 639 -84.24 651.21 -84.24ZM659.27 -32.97L659.27 -41.25C657.31 -45.01 652.67 -46.89 645.35 -46.89C636.56 -45.91 631.92 -42.49 631.43 -36.64C631.92 -30.83 636.56 -27.68 645.35 -27.19C652.67 -27.19 657.31 -29.12 659.27 -32.97Z" />
	</g>
</svg>